<svg width="382" height="251" viewBox="0 0 382 251" fill="none" xmlns="http://www.w3.org/2000/svg">
<path d="M381.891 232.885H0V233.063H381.891V232.885Z" fill="#E6E6E6"/>
<path d="M95.3353 243.645H70.0388V243.823H95.3353V243.645Z" fill="#E6E6E6"/>
<path d="M62.0343 243.645H47.3773V243.823H62.0343V243.645Z" fill="#E6E6E6"/>
<path d="M160.814 246.262H146.157V246.44H160.814V246.262Z" fill="#E6E6E6"/>
<path d="M237.238 250.23H204.251V250.408H237.238V250.23Z" fill="#E6E6E6"/>
<path d="M197.453 250.23H192.618V250.408H197.453V250.23Z" fill="#E6E6E6"/>
<path d="M346.26 246.262H274.709V246.44H346.26V246.262Z" fill="#E6E6E6"/>
<path d="M181.017 201.169H33.5381C32.3827 201.167 31.2754 200.739 30.4592 199.977C29.6429 199.216 29.1845 198.184 29.1845 197.109V4.08748C29.1946 3.01796 29.6574 1.99533 30.4726 1.2417C31.2877 0.48808 32.3893 0.0643321 33.5381 0.0625H181.017C182.173 0.0625 183.283 0.490305 184.1 1.2518C184.918 2.0133 185.378 3.04611 185.378 4.12304V197.109C185.378 198.186 184.918 199.219 184.1 199.98C183.283 200.741 182.173 201.169 181.017 201.169V201.169ZM33.5381 0.204726C32.4334 0.20661 31.3746 0.616514 30.5942 1.34447C29.8138 2.07242 29.3755 3.05894 29.3755 4.08748V197.109C29.3755 198.137 29.8138 199.124 30.5942 199.852C31.3746 200.58 32.4334 200.99 33.5381 200.992H181.017C182.122 200.99 183.182 200.58 183.963 199.852C184.745 199.124 185.185 198.138 185.187 197.109V4.08748C185.185 3.05829 184.745 2.07178 183.963 1.34403C183.182 0.616283 182.122 0.206606 181.017 0.204726H33.5381Z" fill="#E6E6E6"/>
<path d="M346.23 201.169H198.743C197.587 201.167 196.479 200.739 195.662 199.978C194.844 199.217 194.384 198.185 194.382 197.109V4.08748C194.394 3.01731 194.859 1.99469 195.675 1.24126C196.491 0.487831 197.594 0.0643122 198.743 0.0625H346.23C347.377 0.0662011 348.477 0.490776 349.29 1.2442C350.104 1.99762 350.565 3.01919 350.575 4.08748V197.109C350.575 198.183 350.118 199.214 349.303 199.975C348.489 200.736 347.384 201.166 346.23 201.169V201.169ZM198.743 0.204726C197.638 0.206606 196.578 0.616283 195.797 1.34403C195.015 2.07178 194.575 3.05829 194.573 4.08748V197.109C194.575 198.138 195.015 199.124 195.797 199.852C196.578 200.58 197.638 200.99 198.743 200.992H346.23C347.335 200.99 348.394 200.58 349.176 199.852C349.958 199.124 350.398 198.138 350.4 197.109V4.08748C350.398 3.05829 349.958 2.07178 349.176 1.34403C348.394 0.616283 347.335 0.206606 346.23 0.204726H198.743Z" fill="#E6E6E6"/>
<path d="M204.235 172.141H187.44V234.173H204.235V172.141Z" fill="#E0E0E0"/>
<path d="M201.043 234.173H204.236V225.724H197.698L201.043 234.173Z" fill="#FAFAFA"/>
<path d="M130.637 172.141H113.841V234.173H130.637V172.141Z" fill="#E0E0E0"/>
<path d="M204.235 172.141H127.857V228.989H204.235V172.141Z" fill="#FAFAFA"/>
<path d="M201.463 174.936V189.976H130.607V174.936H201.44H201.463ZM201.738 174.658H130.332V190.246H201.761V174.658H201.738Z" fill="#E0E0E0"/>
<path d="M131.042 234.173H127.857V225.724H134.387L131.042 234.173Z" fill="#FAFAFA"/>
<path d="M164.358 182.452C164.358 182.763 164.457 183.067 164.643 183.325C164.828 183.584 165.092 183.785 165.4 183.904C165.709 184.023 166.048 184.054 166.376 183.994C166.703 183.933 167.004 183.783 167.24 183.563C167.476 183.344 167.637 183.064 167.702 182.759C167.767 182.454 167.733 182.138 167.606 181.851C167.478 181.564 167.262 181.318 166.984 181.145C166.706 180.973 166.38 180.881 166.046 180.881C165.599 180.881 165.169 181.046 164.853 181.341C164.536 181.636 164.358 182.035 164.358 182.452V182.452Z" fill="#E6E6E6"/>
<path d="M201.463 193.041V208.081H130.607V193.041H201.44H201.463ZM201.738 192.771H130.332V208.359H201.761V192.778L201.738 192.771Z" fill="#E0E0E0"/>
<path d="M164.358 200.6C164.358 200.911 164.457 201.215 164.643 201.473C164.828 201.732 165.092 201.933 165.4 202.052C165.709 202.171 166.048 202.202 166.376 202.142C166.703 202.081 167.004 201.931 167.24 201.712C167.476 201.492 167.637 201.212 167.702 200.907C167.767 200.602 167.733 200.286 167.606 199.999C167.478 199.712 167.262 199.466 166.984 199.294C166.706 199.121 166.38 199.029 166.046 199.029C165.599 199.029 165.169 199.194 164.853 199.489C164.536 199.784 164.358 200.184 164.358 200.6Z" fill="#E6E6E6"/>
<path d="M201.463 211.153V226.201H130.607V211.153H201.44H201.463ZM201.738 210.876H130.332V226.471H201.761V210.876H201.738Z" fill="#E0E0E0"/>
<path d="M164.358 218.677C164.36 218.988 164.46 219.291 164.646 219.549C164.833 219.806 165.097 220.006 165.406 220.124C165.714 220.242 166.053 220.272 166.38 220.211C166.707 220.149 167.007 219.999 167.242 219.779C167.478 219.559 167.638 219.279 167.702 218.974C167.767 218.67 167.733 218.354 167.605 218.067C167.477 217.78 167.261 217.535 166.983 217.363C166.706 217.191 166.38 217.099 166.046 217.099C165.824 217.099 165.604 217.14 165.399 217.219C165.193 217.298 165.007 217.415 164.85 217.561C164.693 217.708 164.569 217.882 164.485 218.074C164.4 218.265 164.357 218.47 164.358 218.677V218.677Z" fill="#E6E6E6"/>
<path d="M120.379 136.115H103.584V234.18H120.379V136.115Z" fill="#E0E0E0"/>
<path d="M117.186 234.173H120.379V225.724H113.849L117.186 234.173Z" fill="#FAFAFA"/>
<path d="M57.6123 136.115H40.8167V234.18H57.6123V136.115Z" fill="#E0E0E0"/>
<path d="M120.379 136.115H54.8237V228.996H120.379V136.115Z" fill="#FAFAFA"/>
<path d="M117.553 138.732V159.76H57.6499V138.732H117.553V138.732ZM117.905 138.412H57.2833V160.066H117.889V138.419L117.905 138.412Z" fill="#E0E0E0"/>
<path d="M117.554 162.328V218.101H89.0193V162.328H117.554ZM117.906 162H88.6756V218.428H117.906V162Z" fill="#E0E0E0"/>
<path d="M86.1848 162.328V218.101H57.6499V162.328H86.1848ZM86.5285 162H57.2833V218.428H86.5133V162H86.5285Z" fill="#E0E0E0"/>
<path d="M58.0163 234.173H54.8237V225.724H61.3616L58.0163 234.173Z" fill="#FAFAFA"/>
<path d="M85.9101 149.257C85.9085 149.57 86.0067 149.876 86.1921 150.136C86.3775 150.397 86.6418 150.6 86.9515 150.721C87.2612 150.841 87.6023 150.874 87.9317 150.813C88.2611 150.753 88.564 150.604 88.8019 150.383C89.0398 150.163 89.202 149.881 89.2681 149.575C89.3341 149.268 89.301 148.951 89.1729 148.662C89.0448 148.373 88.8275 148.126 88.5485 147.952C88.2695 147.778 87.9413 147.686 87.6056 147.686C87.1573 147.686 86.7271 147.851 86.4094 148.145C86.0916 148.44 85.9121 148.84 85.9101 149.257Z" fill="#E6E6E6"/>
<path d="M91.9592 188.888C91.9592 189.201 92.0588 189.506 92.2455 189.766C92.4321 190.026 92.6974 190.228 93.0077 190.347C93.3179 190.467 93.6593 190.497 93.9884 190.436C94.3175 190.374 94.6196 190.223 94.8564 190.002C95.0933 189.78 95.2541 189.498 95.3187 189.192C95.3833 188.885 95.3486 188.567 95.2191 188.279C95.0896 187.991 94.8711 187.745 94.5912 187.572C94.3114 187.399 93.9828 187.308 93.6471 187.309C93.4248 187.309 93.2047 187.35 92.9994 187.43C92.7941 187.509 92.6077 187.625 92.4509 187.772C92.294 187.919 92.1698 188.093 92.0855 188.284C92.0011 188.476 91.9582 188.681 91.9592 188.888V188.888Z" fill="#E6E6E6"/>
<path d="M79.8685 188.888C79.8701 189.199 79.9703 189.502 80.1567 189.759C80.3431 190.017 80.6073 190.217 80.9158 190.335C81.2244 190.453 81.5635 190.483 81.8905 190.421C82.2174 190.36 82.5174 190.21 82.7527 189.99C82.988 189.77 83.1481 189.49 83.2126 189.185C83.2771 188.88 83.2432 188.565 83.1152 188.278C82.9873 187.991 82.7709 187.746 82.4935 187.574C82.2161 187.401 81.89 187.309 81.5565 187.309C81.3342 187.309 81.1141 187.35 80.9088 187.43C80.7035 187.509 80.5171 187.625 80.3602 187.772C80.2034 187.919 80.0792 188.093 79.9948 188.284C79.9105 188.476 79.8675 188.681 79.8685 188.888V188.888Z" fill="#E6E6E6"/>
<path d="M77.9589 108.772H70.8787C71.5312 111.97 71.9421 115.207 72.1084 118.458C72.1084 122.014 66.7161 136.115 74.3997 136.115C82.0834 136.115 76.6911 122.049 76.6911 118.458C76.87 115.206 77.2936 111.969 77.9589 108.772V108.772Z" fill="#E0E0E0"/>
<path d="M51.021 123.194V127.461C51.0291 129.748 52.0085 131.94 53.7457 133.557C55.4828 135.174 57.8366 136.086 60.2933 136.094H64.876C67.3327 136.086 69.6865 135.174 71.4236 133.557C73.1608 131.94 74.1402 129.748 74.1483 127.461V123.194H51.021Z" fill="#F5F5F5"/>
<path d="M149.449 163.095C149.449 168.073 155.429 172.141 162.739 172.141H169.338C176.647 172.141 182.628 168.073 182.628 163.095H149.449Z" fill="#E0E0E0"/>
<path d="M324.309 155.799C320.307 158.843 314.777 164.411 309.721 172.248C306.345 177.467 304.313 182.915 303.42 190.154C303.42 181.976 303.473 173.193 303.504 164.902C304.52 162.768 306.842 157.847 308.507 153.965C314.059 141.001 316.144 137.808 321.132 126.629C327.8 111.695 334.628 94.0166 332.673 95.4317C328.686 98.3118 313.41 124.943 311.76 128.755C307.263 138.927 304.483 149.686 303.519 160.649C303.519 152.827 303.58 145.716 303.611 140.197C303.718 122.199 304.046 116.389 304.207 114.597C304.825 113.686 305.551 112.627 305.978 112.058C309.568 107.222 310.951 103.112 314.327 95.9011C319.123 85.6964 323.248 67.5698 322.041 68.48C317.015 72.2917 313.059 80.4696 307.85 90.9019C302.641 101.334 304.13 107.329 303.099 116.232C302.885 117.982 302.717 124.581 302.595 133.719C301.251 123.976 298.715 117.562 294.094 111.731C288.411 104.555 282.912 99.7127 278.88 97.1811C274.847 94.6495 285.845 112.271 291.1 119.937C295.782 126.792 300.097 132.83 302.557 138.782C302.427 151.177 302.366 166.864 302.366 181.45C301.159 174.808 299.188 167.647 296.561 162.107C293.399 155.451 288.541 145.239 284.669 141.776C283.745 140.944 288.717 160.806 291.91 166.082C295.102 171.359 297.447 176.344 299.456 179.338C299.922 180.049 301.48 182.73 302.366 184.28C302.366 202.108 302.473 217.838 302.641 223.193H303.466C303.412 221.813 303.397 212.739 303.42 200.735C305.413 194.221 309.965 186.783 313.723 179.999C317.817 172.653 328.311 152.777 324.309 155.799Z" fill="#E0E0E0"/>
<path d="M315.014 234.173H291.077L289.267 212.327H316.824L315.014 234.173Z" fill="#F0F0F0"/>
<path d="M318.603 214.873H287.479L286.593 207.498H319.497L318.603 214.873Z" fill="#F5F5F5"/>
<path d="M94.9077 14.6406H52.0978V58.4105H94.9077V14.6406Z" fill="#E0E0E0"/>
<path d="M99.5436 14.6406H55.3207V58.4105H99.5436V14.6406Z" fill="#F5F5F5"/>
<path d="M95.8392 54.9615V18.0896L59.025 18.0896V54.9615H95.8392Z" fill="white"/>
<path d="M86.9106 46.0157V27.0215H67.9459V46.0157H86.9106Z" fill="#F5F5F5"/>
<path d="M313.188 19.7393H273.418V60.4015H313.188V19.7393Z" fill="#E0E0E0"/>
<path d="M317.496 19.7393H276.42V60.4015H317.496V19.7393Z" fill="#F5F5F5"/>
<path d="M314.059 57.1942V22.9463L279.865 22.9463V57.1942H314.059Z" fill="white"/>
<path d="M296.958 50.0046C302.851 50.0046 307.628 45.5568 307.628 40.0702C307.628 34.5835 302.851 30.1357 296.958 30.1357C291.065 30.1357 286.288 34.5835 286.288 40.0702C286.288 45.5568 291.065 50.0046 296.958 50.0046Z" fill="#F5F5F5"/>
<path d="M139.382 40.7393H107.624V73.2093H139.382V40.7393Z" fill="#E0E0E0"/>
<path d="M142.819 40.7393H110.015V73.2093H142.819V40.7393Z" fill="#F5F5F5"/>
<path d="M140.07 70.649V43.2991H112.765V70.649H140.07Z" fill="white"/>
<path d="M126.421 50.0547L118.951 62.1012H133.891L126.421 50.0547Z" fill="#F5F5F5"/>
</svg>
